<mxfile host="Electron" modified="2024-06-16T13:06:26.311Z" agent="Mozilla/5.0 (Windows NT 10.0; Win64; x64) AppleWebKit/537.36 (KHTML, like Gecko) draw.io/24.4.13 Chrome/124.0.6367.207 Electron/30.0.6 Safari/537.36" etag="gQ1vuTBXxGyEcUTxyq4U" version="24.4.13" type="device">
  <diagram name="Page-1" id="3Z7wS5zxHdCauUMahzbG">
    <mxGraphModel dx="954" dy="765" grid="1" gridSize="1" guides="1" tooltips="1" connect="1" arrows="1" fold="1" page="1" pageScale="1" pageWidth="827" pageHeight="1169" math="1" shadow="0">
      <root>
        <mxCell id="0" />
        <mxCell id="1" parent="0" />
        <mxCell id="p-MWUEOOw7rYjWZ_oE8c-9" style="rounded=0;orthogonalLoop=1;jettySize=auto;html=1;exitX=0;exitY=0.5;exitDx=0;exitDy=0;exitPerimeter=0;entryX=1;entryY=0;entryDx=0;entryDy=0;endArrow=none;endFill=0;" edge="1" parent="1" source="p-MWUEOOw7rYjWZ_oE8c-2" target="p-MWUEOOw7rYjWZ_oE8c-8">
          <mxGeometry relative="1" as="geometry">
            <mxPoint x="220" y="370" as="targetPoint" />
          </mxGeometry>
        </mxCell>
        <mxCell id="p-MWUEOOw7rYjWZ_oE8c-14" style="edgeStyle=none;rounded=0;orthogonalLoop=1;jettySize=auto;html=1;exitX=1;exitY=0.5;exitDx=0;exitDy=0;exitPerimeter=0;entryX=0;entryY=1;entryDx=0;entryDy=0;endArrow=none;endFill=0;" edge="1" parent="1" source="p-MWUEOOw7rYjWZ_oE8c-2" target="p-MWUEOOw7rYjWZ_oE8c-13">
          <mxGeometry relative="1" as="geometry" />
        </mxCell>
        <mxCell id="p-MWUEOOw7rYjWZ_oE8c-2" value="" style="pointerEvents=1;verticalLabelPosition=bottom;shadow=0;dashed=0;align=center;html=1;verticalAlign=top;shape=mxgraph.electrical.resistors.resistor_1;rotation=-15;" vertex="1" parent="1">
          <mxGeometry x="250.27" y="317.05" width="246" height="27.91" as="geometry" />
        </mxCell>
        <mxCell id="p-MWUEOOw7rYjWZ_oE8c-11" style="edgeStyle=none;rounded=0;orthogonalLoop=1;jettySize=auto;html=1;exitX=0;exitY=0.5;exitDx=0;exitDy=0;exitPerimeter=0;entryX=1;entryY=1;entryDx=0;entryDy=0;endArrow=none;endFill=0;" edge="1" parent="1" source="p-MWUEOOw7rYjWZ_oE8c-3" target="p-MWUEOOw7rYjWZ_oE8c-8">
          <mxGeometry relative="1" as="geometry" />
        </mxCell>
        <mxCell id="p-MWUEOOw7rYjWZ_oE8c-15" style="edgeStyle=none;rounded=0;orthogonalLoop=1;jettySize=auto;html=1;exitX=1;exitY=0.5;exitDx=0;exitDy=0;exitPerimeter=0;entryX=0;entryY=0;entryDx=0;entryDy=0;endArrow=none;endFill=0;" edge="1" parent="1" source="p-MWUEOOw7rYjWZ_oE8c-3" target="p-MWUEOOw7rYjWZ_oE8c-12">
          <mxGeometry relative="1" as="geometry" />
        </mxCell>
        <mxCell id="p-MWUEOOw7rYjWZ_oE8c-3" value="" style="pointerEvents=1;verticalLabelPosition=bottom;shadow=0;dashed=0;align=center;html=1;verticalAlign=top;shape=mxgraph.electrical.resistors.resistor_1;rotation=15;" vertex="1" parent="1">
          <mxGeometry x="249.88" y="396.98" width="246" height="26.95" as="geometry" />
        </mxCell>
        <mxCell id="p-MWUEOOw7rYjWZ_oE8c-16" style="edgeStyle=none;rounded=0;orthogonalLoop=1;jettySize=auto;html=1;exitX=1;exitY=0.5;exitDx=0;exitDy=0;exitPerimeter=0;entryX=0.5;entryY=0;entryDx=0;entryDy=0;endArrow=none;endFill=0;" edge="1" parent="1" source="p-MWUEOOw7rYjWZ_oE8c-4" target="p-MWUEOOw7rYjWZ_oE8c-12">
          <mxGeometry relative="1" as="geometry" />
        </mxCell>
        <mxCell id="p-MWUEOOw7rYjWZ_oE8c-17" style="edgeStyle=none;rounded=0;orthogonalLoop=1;jettySize=auto;html=1;exitX=0;exitY=0.5;exitDx=0;exitDy=0;exitPerimeter=0;entryX=0.5;entryY=1;entryDx=0;entryDy=0;endArrow=none;endFill=0;" edge="1" parent="1" source="p-MWUEOOw7rYjWZ_oE8c-4" target="p-MWUEOOw7rYjWZ_oE8c-13">
          <mxGeometry relative="1" as="geometry" />
        </mxCell>
        <mxCell id="p-MWUEOOw7rYjWZ_oE8c-4" value="" style="pointerEvents=1;verticalLabelPosition=bottom;shadow=0;dashed=0;align=center;html=1;verticalAlign=top;shape=mxgraph.electrical.resistors.resistor_1;direction=south;" vertex="1" parent="1">
          <mxGeometry x="516" y="329" width="20" height="80" as="geometry" />
        </mxCell>
        <mxCell id="p-MWUEOOw7rYjWZ_oE8c-5" value="$$\lambda/4,\,Z_0\sqrt{2}$$" style="text;strokeColor=none;align=center;fillColor=none;html=1;verticalAlign=middle;whiteSpace=wrap;rounded=0;fontFamily=Times New Roman;fontSize=22;rotation=-15;" vertex="1" parent="1">
          <mxGeometry x="282.88" y="316" width="180" height="30" as="geometry" />
        </mxCell>
        <mxCell id="p-MWUEOOw7rYjWZ_oE8c-6" value="$$\lambda/4,\,Z_0\sqrt{2}$$" style="text;strokeColor=none;align=center;fillColor=none;html=1;verticalAlign=middle;whiteSpace=wrap;rounded=0;fontFamily=Times New Roman;fontSize=21;rotation=15;" vertex="1" parent="1">
          <mxGeometry x="285" y="396" width="180" height="30" as="geometry" />
        </mxCell>
        <mxCell id="p-MWUEOOw7rYjWZ_oE8c-7" value="$$2Z_0$$" style="text;strokeColor=none;align=center;fillColor=none;html=1;verticalAlign=middle;whiteSpace=wrap;rounded=0;fontFamily=Times New Roman;fontSize=22;" vertex="1" parent="1">
          <mxGeometry x="547" y="356" width="30" height="30" as="geometry" />
        </mxCell>
        <mxCell id="p-MWUEOOw7rYjWZ_oE8c-20" style="edgeStyle=none;rounded=0;orthogonalLoop=1;jettySize=auto;html=1;exitX=0;exitY=0.5;exitDx=0;exitDy=0;endArrow=oval;endFill=0;" edge="1" parent="1" source="p-MWUEOOw7rYjWZ_oE8c-8">
          <mxGeometry relative="1" as="geometry">
            <mxPoint x="196" y="370" as="targetPoint" />
          </mxGeometry>
        </mxCell>
        <mxCell id="p-MWUEOOw7rYjWZ_oE8c-8" value="" style="ellipse;whiteSpace=wrap;html=1;aspect=fixed;fillColor=#000000;" vertex="1" parent="1">
          <mxGeometry x="231" y="368" width="5" height="5" as="geometry" />
        </mxCell>
        <mxCell id="p-MWUEOOw7rYjWZ_oE8c-19" style="edgeStyle=none;rounded=0;orthogonalLoop=1;jettySize=auto;html=1;exitX=1;exitY=0.5;exitDx=0;exitDy=0;endArrow=oval;endFill=0;" edge="1" parent="1" source="p-MWUEOOw7rYjWZ_oE8c-12">
          <mxGeometry relative="1" as="geometry">
            <mxPoint x="578" y="455" as="targetPoint" />
          </mxGeometry>
        </mxCell>
        <mxCell id="p-MWUEOOw7rYjWZ_oE8c-12" value="" style="ellipse;whiteSpace=wrap;html=1;aspect=fixed;fillColor=#000000;" vertex="1" parent="1">
          <mxGeometry x="523.5" y="451" width="5" height="5" as="geometry" />
        </mxCell>
        <mxCell id="p-MWUEOOw7rYjWZ_oE8c-18" style="edgeStyle=none;rounded=0;orthogonalLoop=1;jettySize=auto;html=1;exitX=1;exitY=0.5;exitDx=0;exitDy=0;endArrow=oval;endFill=0;" edge="1" parent="1" source="p-MWUEOOw7rYjWZ_oE8c-13">
          <mxGeometry relative="1" as="geometry">
            <mxPoint x="578" y="287.20000000000005" as="targetPoint" />
          </mxGeometry>
        </mxCell>
        <mxCell id="p-MWUEOOw7rYjWZ_oE8c-13" value="" style="ellipse;whiteSpace=wrap;html=1;aspect=fixed;fillColor=#000000;" vertex="1" parent="1">
          <mxGeometry x="523.5" y="285" width="5" height="5" as="geometry" />
        </mxCell>
      </root>
    </mxGraphModel>
  </diagram>
</mxfile>
